<?xml version="1.0" standalone="no"?>
<!DOCTYPE svg PUBLIC "-//W3C//DTD SVG 20010904//EN"
 "http://www.w3.org/TR/2001/REC-SVG-20010904/DTD/svg10.dtd">
<svg version="1.0" xmlns="http://www.w3.org/2000/svg"
 width="200.000000pt" height="200.000000pt" viewBox="0 0 200.000000 200.000000"
 preserveAspectRatio="xMidYMid meet">
<metadata>
Created by potrace 1.16, written by Peter Selinger 2001-2019
</metadata>
<g transform="translate(0.000000,200.000000) scale(0.100000,-0.100000)"
fill="#000000" stroke="none">
<path d="M926 1295 c-81 -29 -136 -109 -136 -200 0 -185 213 -282 350 -159 50
46 70 90 70 158 0 73 -17 112 -68 158 -62 56 -138 71 -216 43z m139 -44 c152
-70 136 -278 -25 -321 -58 -16 -116 3 -162 51 -82 86 -54 220 56 270 52 23 80
23 131 0z"/>
<path d="M882 1108 l3 -93 28 -3 c19 -2 27 -9 27 -23 0 -17 7 -19 60 -19 53 0
60 2 60 19 0 14 8 21 28 23 l27 3 3 93 3 92 -121 0 -121 0 3 -92z m198 -3 l0
-55 -80 0 -80 0 0 55 0 55 80 0 80 0 0 -55z"/>
</g>
</svg>
